<?xml version="1.0" encoding="utf-8"?>
<!-- Generator: Adobe Illustrator 24.0.1, SVG Export Plug-In . SVG Version: 6.00 Build 0)  -->
<svg version="1.1" id="Calque_1" xmlns="http://www.w3.org/2000/svg" xmlns:xlink="http://www.w3.org/1999/xlink" x="0px" y="0px"
	 viewBox="0 0 100 100" enable-background="new 0 0 100 100" xml:space="preserve">
<path fill="#80081f" d="M85.5,32.5C85,17.3,72.4,5.1,57.1,5.1c-10.9,0-20.9,6.3-25.6,16.1c-0.6-0.1-1.2-0.1-1.7-0.1
	c-7,0-13,4.7-14.8,11.4C6.8,32.8,0.2,39.6,0.2,47.8c0,8.5,6.9,15.3,15.3,15.3h23.8v8.1h-11L50,94.9l21.6-23.6h-11v-8.1h23.8
	c8.5,0,15.3-6.9,15.3-15.3C99.8,39.7,93.5,33.1,85.5,32.5z M84.4,58.9H59.5c-1.7,0-3.1,1.4-3.1,3.1v10.4c0,1.7,1.4,3.1,3.1,3.1H62
	L50,88.6L38,75.5h2.5c1.7,0,3.1-1.4,3.1-3.1V62c0-1.7-1.4-3.1-3.1-3.1H15.6c-6.1,0-11.1-5-11.1-11.1c0-6.1,5-11.1,11.1-11.1
	c0.1,0,0.2,0,0.4,0c1.5,0,2.7-1,3-2.5c1-5.2,5.6-8.9,10.9-8.9c0.6,0,1.2,0.1,1.9,0.2c1.4,0.2,2.8-0.5,3.3-1.8
	C38.9,15,47.6,9.4,57.1,9.4c13.4,0,24.3,10.9,24.3,24.3c0,1.7,1.4,3.1,3.1,3.1c6.1,0,11.1,5,11.1,11.1S90.6,58.9,84.4,58.9z"/>
</svg>
