<?xml version="1.0" encoding="utf-8"?>
<!-- Generator: Adobe Illustrator 24.0.1, SVG Export Plug-In . SVG Version: 6.00 Build 0)  -->
<svg version="1.1" id="Calque_1" xmlns="http://www.w3.org/2000/svg" xmlns:xlink="http://www.w3.org/1999/xlink" x="0px" y="0px"
	 viewBox="0 0 100 100" style="enable-background:new 0 0 100 100;" xml:space="preserve">
<style type="text/css">
	.st0{fill:#882600;}
</style>
<g>
	<path class="st0" d="M84.7,15.4C72,2.7,52.9-2,35.6,3.2L35,2c-0.6-1.2-1.9-2-3.2-2c-1.4,0-2.5,0.6-3.1,1.6L23.1,10
		c-0.6,1-0.7,2.2-0.2,3.3c0.5,1.2,1.5,2,2.9,2.2l10.2,0.7l0.1,0c1.4,0,2.5-0.6,3.2-1.7c0.6-1,0.7-2.2,0.2-3.3l-0.2-0.4
		c14-3.7,29.2,0.3,39.5,10.5c13.9,13.9,16,35.8,4.8,52.1c-0.5,0.8-0.7,1.9-0.5,2.9c0.2,1,0.8,1.8,1.5,2.2l0.9,0.6
		c0.6,0.4,1.3,0.6,2,0.6c1.3,0,2.4-0.6,3-1.6C103.9,58.6,101.5,32.2,84.7,15.4z"/>
	<path class="st0" d="M78,86.1c-0.7-1-1.7-1.7-2.9-1.9l-10.4-0.4c-1.2,0-2.3,0.6-3.1,1.5l-0.1,0.2c-0.6,1.1-0.7,2.4-0.1,3.6l0.1,0.2
		c-14.1,4.1-30.2,0.1-40.6-10.3c-13.5-13.5-15.8-35-5.5-51.1C16,27,16.2,26,16,25c-0.2-0.9-0.8-1.7-1.7-2.2l-0.8-0.5
		c-0.8-0.5-1.9-0.7-2.9-0.5c-1,0.3-1.8,0.8-2.3,1.7c-12.2,19.5-9.3,45.3,6.8,61.5c9.1,9.2,21.9,14.4,34.9,14.4
		c5.1,0,10.3-0.8,15.5-2.5l0.7,1.4c0.7,1.1,1.8,1.8,3.2,1.8c1.1,0,2.3-0.6,3-1.5l5.5-8.7c0.6-1.1,0.7-2.4,0.2-3.5L78,86.1z"/>
</g>
</svg>
