<?xml version="1.0" encoding="utf-8"?>
<!-- Generator: Adobe Illustrator 24.0.1, SVG Export Plug-In . SVG Version: 6.00 Build 0)  -->
<svg version="1.1" id="Calque_1" xmlns="http://www.w3.org/2000/svg" xmlns:xlink="http://www.w3.org/1999/xlink" x="0px" y="0px"
	 viewBox="0 0 100 100" style="enable-background:new 0 0 100 100;" xml:space="preserve">
<style type="text/css">
	.st0{fill:#00323A;}
</style>
<g>
	<path class="st0" d="M59,47.3l-15.8-9c-0.9-0.6-2.1-0.6-3.1-0.1c-1,0.5-1.6,1.6-1.6,2.8V59c0,1.1,0.6,2.1,1.5,2.6
		c0.5,0.3,1.1,0.5,1.6,0.5c0.5,0,1-0.1,1.5-0.4L59,52.7c0.9-0.6,1.5-1.6,1.5-2.7S59.9,47.9,59,47.3z"/>
	<path class="st0" d="M98.6,20.8c-1-1-2.4-1.6-3.9-1.6H5.4c-3,0-5.4,2.4-5.4,5.4v50.8c0,3,2.4,5.4,5.4,5.4h89.2c3,0,5.4-2.4,5.4-5.4
		V24.7C100.1,23.2,99.6,21.9,98.6,20.8z M80.4,23.2h11.5c0.8,0,1.5,0.7,1.5,1.5c0,0.8-0.7,1.4-1.5,1.4H80.4c-0.8,0-1.4-0.7-1.4-1.4
		C78.9,23.9,79.6,23.2,80.4,23.2z M56.3,23.2h11.5c0.8,0,1.5,0.7,1.5,1.5c0,0.8-0.7,1.4-1.5,1.4H56.3c-0.8,0-1.4-0.7-1.4-1.4
		C54.9,23.9,55.5,23.2,56.3,23.2z M32.2,23.2h11.5c0.8,0,1.5,0.7,1.5,1.5c0,0.8-0.7,1.4-1.5,1.4H32.2c-0.8,0-1.4-0.7-1.4-1.4
		C30.8,23.9,31.5,23.2,32.2,23.2z M8.2,23.2h11.5c0.8,0,1.5,0.7,1.5,1.5c0,0.8-0.7,1.4-1.5,1.4H8.2c-0.8,0-1.4-0.7-1.4-1.4
		C6.7,23.9,7.4,23.2,8.2,23.2z M19.7,76.8H8.2c-0.8,0-1.4-0.7-1.4-1.4c0-0.8,0.7-1.5,1.4-1.5h11.5c0.8,0,1.5,0.7,1.5,1.5
		C21.2,76.1,20.5,76.8,19.7,76.8z M43.8,76.8H32.2c-0.8,0-1.4-0.7-1.4-1.4c0-0.8,0.7-1.5,1.4-1.5h11.5c0.8,0,1.5,0.7,1.5,1.5
		C45.2,76.1,44.6,76.8,43.8,76.8z M67.8,76.8H56.3c-0.8,0-1.4-0.7-1.4-1.4c0-0.8,0.7-1.5,1.4-1.5h11.5c0.8,0,1.5,0.7,1.5,1.5
		C69.3,76.1,68.6,76.8,67.8,76.8z M91.9,76.8H80.4c-0.8,0-1.4-0.7-1.4-1.4c0-0.8,0.7-1.5,1.4-1.5h11.5c0.8,0,1.5,0.7,1.5,1.5
		C93.4,76.1,92.7,76.8,91.9,76.8z M93.9,68.7c-0.2,0.6-0.8,1-1.5,1H7.6c-0.9,0-1.5-0.7-1.5-1.6V31.8c0-0.9,0.7-1.6,1.5-1.6h84.8
		c0.9,0,1.5,0.7,1.5,1.6V68.7z"/>
</g>
</svg>
