<?xml version="1.0" encoding="utf-8"?>
<!-- Generator: Adobe Illustrator 24.0.1, SVG Export Plug-In . SVG Version: 6.00 Build 0)  -->
<svg version="1.1" id="Calque_1" xmlns="http://www.w3.org/2000/svg" xmlns:xlink="http://www.w3.org/1999/xlink" x="0px" y="0px"
	 viewBox="0 0 100 100" style="enable-background:new 0 0 100 100;" xml:space="preserve">
<style type="text/css">
	.st0{fill:#80081F;}
</style>
<path class="st0" d="M86.1,31.2C84.9,16.3,72.1,4.4,57,4.4c-10.8,0-20.8,6.1-25.8,15.6c-0.3,0-0.5,0-0.8,0
	c-7.1,0-13.3,4.5-15.6,11.2C6.5,32,0,39.1,0,47.5c0,9.1,7.4,16.4,16.4,16.4h21.7v4.9H25.5L50,95.6l24.5-26.8H61.9V64h21.7
	c9.1,0,16.4-7.4,16.4-16.4C100.1,39.4,94.1,32.5,86.1,31.2z M54.8,61.3v10.1c0,2.2,1.6,4,3.6,4.4L50,85l-8.3-9.1
	c2.1-0.4,3.6-2.3,3.6-4.4V61.3c0-2.5-2-4.5-4.5-4.5H16.5c-5.1,0-9.3-4.2-9.3-9.3c0-5.1,4.2-9.3,9.3-9.3h0.4c2.2,0,4-1.5,4.4-3.7
	c0.8-4.3,4.7-7.4,9.1-7.4c0.4,0,0.9,0.1,1.4,0.1l0.3,0c2.1,0.3,4.1-0.8,4.8-2.6c3.5-7.9,11.3-13,20.1-13c12.2,0,22.2,9.9,22.2,22.2
	c0,2.5,2,4.5,4.5,4.5c5.1,0,9.3,4.2,9.3,9.3c0,5.1-4.2,9.2-9.4,9.2H59.3C56.8,56.8,54.8,58.8,54.8,61.3z"/>
</svg>
