<?xml version="1.0" encoding="utf-8"?>
<!-- Generator: Adobe Illustrator 24.0.1, SVG Export Plug-In . SVG Version: 6.00 Build 0)  -->
<svg version="1.1" id="Calque_1" xmlns="http://www.w3.org/2000/svg" xmlns:xlink="http://www.w3.org/1999/xlink" x="0px" y="0px"
	 viewBox="0 0 500 235" enable-background="new 0 0 500 235" xml:space="preserve">
<g>
	<g>
		<g>
			<g id="LOGO_32_">
				<g>
					<g>
						<path fill="#FFFFFF" d="M84.1,29.5c-3-6.3-7.4-11.5-13.2-15.6c-4.5-3.1-9.7-5.4-15.6-6.7c-6-1.4-16.5-2-31.2-2H6v92.1h22.5
							c12.3,0,21.4-0.7,27.2-2c5.7-1.3,10.8-3.5,15.2-6.6c5.8-4,10.2-9.3,13.2-15.6c3-6.3,4.5-13.7,4.5-21.8
							C88.7,43.1,87.1,35.8,84.1,29.5z M58.1,72.8c-5,4.5-13,6.8-23.7,6.8h-6.2V22.8h6.2c10.7,0,18.7,2.3,23.7,6.9
							c5.1,4.6,7.7,11.9,7.7,21.6C65.8,61,63.2,68.2,58.1,72.8z"/>
					</g>
					<g>
						<path fill="#FFFFFF" d="M218.6,53.4c-1.7-4-4.3-7.7-7.7-11c-3.3-3.2-7.1-5.6-11.2-7.2c-4.2-1.6-8.8-2.4-13.6-2.4
							c-4.9,0-9.4,0.8-13.7,2.4c-4.2,1.6-7.9,4-11.2,7.2c-3.4,3.2-5.9,6.9-7.6,10.9c-1.7,4-2.6,8.4-2.6,13c0,4.5,0.9,8.9,2.6,12.9
							c1.7,4.1,4.3,7.7,7.6,10.8c3.3,3.2,7.1,5.7,11.3,7.3s8.8,2.5,13.6,2.5c4.7,0,9.2-0.8,13.4-2.5c4.2-1.7,8-4.1,11.4-7.3
							c3.3-3.2,5.9-6.9,7.7-10.9c1.7-4,2.6-8.3,2.6-12.8C221.2,61.8,220.4,57.4,218.6,53.4z M197.6,79.1c-2.8,3.2-6.7,4.8-11.5,4.8
							c-4.9,0-8.8-1.6-11.6-4.9c-2.7-3.1-4.1-7.5-4.1-12.8c0-5.4,1.4-9.7,4.2-12.9c2.8-3.2,6.7-4.9,11.5-4.9c4.8,0,8.6,1.7,11.5,4.9
							c2.8,3.2,4.2,7.5,4.2,12.9C201.8,71.7,200.4,76,197.6,79.1z"/>
					</g>
					<g>
						<path fill="#FFFFFF" d="M143.6,32.8v19.5H131c-4.8,0-8.7,1.7-11.5,4.9c-1.5,1.8-2.7,3.9-3.4,6.6c-0.4,1.8-0.5,3.8-0.5,6v27.6
							H96.1V32.8H143.6z"/>
					</g>
					<g>
						<path fill="#FFFFFF" d="M296.9,53.4c-1.7-4-4.3-7.7-7.7-11c-3.3-3.2-7.1-5.6-11.2-7.2c-4.2-1.6-8.8-2.4-13.6-2.4
							c-4.9,0-9.4,0.8-13.7,2.4c-0.1,0.1-0.3,0.1-0.4,0.2c-0.1,0.1-0.3,0.1-0.5,0.2l-2.6,1.1v-3.9h-18.5v93.7h18.5V95.8l2.6,1.1
							c0.1,0.1,0.3,0.1,0.5,0.2c0.2,0.1,0.3,0.1,0.5,0.2c4.2,1.7,8.8,2.5,13.6,2.5c4.7,0,9.2-0.8,13.4-2.5c4.2-1.7,8-4.1,11.4-7.3
							c3.3-3.2,5.9-6.9,7.7-10.9c1.7-4,2.6-8.3,2.6-12.8C299.5,61.8,298.6,57.4,296.9,53.4z M275.9,79.1c-2.8,3.2-6.7,4.8-11.5,4.8
							c-4.9,0-8.8-1.6-11.6-4.9c-2.7-3.1-4.1-7.5-4.1-12.8c0-5.4,1.4-9.7,4.2-12.9c2.8-3.2,6.7-4.9,11.5-4.9c4.8,0,8.6,1.7,11.5,4.9
							c2.8,3.2,4.2,7.5,4.2,12.9C280,71.7,278.6,76,275.9,79.1z"/>
					</g>
					<g>
						<path fill="#FFFFFF" d="M375.1,53.4c-1.7-4-4.3-7.7-7.7-11c-3.3-3.2-7.1-5.6-11.2-7.2c-4.2-1.6-8.8-2.4-13.6-2.4
							c-4.9,0-9.4,0.8-13.7,2.4c-0.1,0.1-0.3,0.1-0.4,0.2c-0.1,0.1-0.3,0.1-0.5,0.2l-2.6,1.1v-3.9h-18.5v93.7h18.5V95.8l2.6,1.1
							c0.1,0.1,0.3,0.1,0.5,0.2c0.2,0.1,0.3,0.1,0.5,0.2c4.2,1.7,8.8,2.5,13.6,2.5c4.7,0,9.2-0.8,13.4-2.5c4.2-1.7,8-4.1,11.4-7.3
							c3.3-3.2,5.9-6.9,7.7-10.9c1.7-4,2.6-8.3,2.6-12.8C377.7,61.8,376.9,57.4,375.1,53.4z M354.1,79.1c-2.8,3.2-6.7,4.8-11.5,4.8
							c-4.9,0-8.8-1.6-11.6-4.9c-2.7-3.1-4.1-7.5-4.1-12.8c0-5.4,1.4-9.7,4.2-12.9c2.8-3.2,6.7-4.9,11.5-4.9c4.8,0,8.6,1.7,11.5,4.9
							c2.8,3.2,4.2,7.5,4.2,12.9C358.3,71.7,356.9,76,354.1,79.1z"/>
					</g>
					<g>
						<g>
							<g>
								<polygon fill="#FFFFFF" points="456,32.8 415.1,126.5 395.3,126.5 436.7,32.8 								"/>
							</g>
						</g>
						<g>
							<g>
								<polygon fill="#FFFFFF" points="418.1,56.6 407.2,81.3 385.7,32.8 407.6,32.8 								"/>
							</g>
						</g>
					</g>
				</g>
			</g>
			<g id="TM_31_">
				<path fill="#FFFFFF" d="M481.4,5.1v1.2h-3.1v8.5h-1.7V6.4h-3.2V5.1H481.4z M486,5.1l2.9,7.4l2.7-7.4h2.4v9.7h-1.5V6.5l-3.1,8.3
					h-1l-3.3-8.3v8.3h-1.5V5.1H486z"/>
			</g>
		</g>
	</g>
	<g>
		<g>
			<path fill="#0E27D2" d="M333.1,172.8c-5.1,7-6.8,15.9-7,24.7c0,1,0,1.9,0,2.9c0.1,4.3,0.5,8.8,2.5,12.7c2.9,5.5,7.9,6.9,13.6,7
				c-6.6-3.8-9.7-12.1-8.9-19.7c0.8-7.6,5-14.4,10.3-20c10.2-10.8,24.3-17.4,38.9-20.3c14.6-2.9,29.6-2.3,44.3-0.5
				c-23-10.5-50.4-10.4-73.8-0.9C345.4,161.9,337.9,166.2,333.1,172.8z"/>
			<path fill="#0E27D2" d="M314.6,230.1c0.6-17.6,2.7-35.1,6-52.3c0.2-1,0.4-2-0.1-2.9c-0.4-0.7-1.1-1-1.8-1.3
				c-4.6-2-10.1-0.8-14.5,1.5c-4.5,2.3-8.3,5.7-12.3,8.6c-19.3,13.9-44.2,17-68,16.9c-34.3-0.1-68.6-5.9-101-17.2
				c16.5,2.4,33.1,4.8,49.7,6.6c19.1,2.1,38.3,3.4,57.6,3c25.2-0.5,51.7-4.5,71.4-20.3c-21.5-14.3-49.5-18.6-74.3-11.4
				c7.3,3.3,14,8.2,19.4,14.1c-22.7-11.3-48.3-16.7-73.6-15.7c3.6,4.1,7.3,8.3,10.9,12.4c-5.4,1.8-10.8-2.1-15.7-5.1
				c-8.6-5.1-18.7-7.7-28.8-7.4c2.1,2.7,4.3,5.4,6.4,8c-26.2-5.7-55.1,4.1-72.6,24.4c15.6-3.5,32.4-1.3,46.7,5.9
				c10.2,5.2,19,12.8,28.4,19.4c12.6,8.8,25.9,14.1,41.5,12.7c7.3-0.7,14.5-2.5,21.4-5.3c3.4-1.4,6.7-3,9.9-4.9
				c2.4-1.4,7.1-3.6,8.6-6c-4.9,8.1-12.2,14.7-20.7,18.9c23.6,0.2,47.1-5.4,68.1-16.2c-0.8,5.3-4.2,10.2-8.9,12.9
				c16.6-3.3,32-12.8,42.2-26.4C309.7,212.3,311.3,221.5,314.6,230.1z"/>
			<path fill="#0E27D2" d="M287.9,130.2c-0.8,1.2-1.3,2.7-1.6,4.1c-1.6,7.1,1.6,14.7,6.9,19.7c5.6,5.3,13.4,7.9,21,8.6
				c4.3,0.4,8.6,0.2,12.8-0.5c2.2-0.4,4.3-0.9,6.4-1.5c1.9-0.6,4-1.9,5.9-2.2c-6.8,1-13.7,1.3-20.5,0.2c-6.8-1.1-13.4-3.5-19-7.6
				c-3.9-2.8-7.3-6.6-8.7-11.3c-1.3-4.6-0.1-10.2,3.7-13.1c-2.1-0.3-4.2,0.6-5.7,2.1C288.6,129.2,288.3,129.7,287.9,130.2z"/>
		</g>
	</g>
</g>
</svg>
