<?xml version="1.0" encoding="utf-8"?>
<!-- Generator: Adobe Illustrator 24.0.1, SVG Export Plug-In . SVG Version: 6.00 Build 0)  -->
<svg version="1.1" id="Calque_1" xmlns="http://www.w3.org/2000/svg" xmlns:xlink="http://www.w3.org/1999/xlink" x="0px" y="0px"
	 viewBox="0 0 100 100" enable-background="new 0 0 100 100" xml:space="preserve">
<g>
	<path fill="#8233E7" d="M98.8,94.5L66.5,62.2c6-6.8,9.2-15.5,9.2-24.6C75.7,16.8,58.8,0,38.1,0C17.4,0,0.6,16.8,0.6,37.6
		c0,20.7,16.8,37.6,37.6,37.6c8.5,0,16.7-2.9,23.4-8.2L94,99.4c0.4,0.4,0.9,0.6,1.5,0.6c0.5,0,1.1-0.2,1.5-0.6l1.9-1.9
		c0.4-0.4,0.6-0.9,0.6-1.5S99.2,94.9,98.8,94.5z M38.1,68.3c-16.9,0-30.7-13.8-30.7-30.7c0-16.9,13.8-30.7,30.7-30.7
		c16.9,0,30.7,13.8,30.7,30.7C68.8,54.5,55.1,68.3,38.1,68.3z"/>
	<path fill="#8233E7" d="M50.8,35.5L32.6,25c-1.5-0.9-3.5,0.2-3.5,2v21c0,1.8,1.9,2.9,3.5,2l18.2-10.5
		C52.3,38.6,52.3,36.4,50.8,35.5z"/>
</g>
</svg>
