<?xml version="1.0" encoding="utf-8"?>
<!-- Generator: Adobe Illustrator 24.0.1, SVG Export Plug-In . SVG Version: 6.00 Build 0)  -->
<svg version="1.1" id="Calque_1" xmlns="http://www.w3.org/2000/svg" xmlns:xlink="http://www.w3.org/1999/xlink" x="0px" y="0px"
	 viewBox="0 0 100 100" enable-background="new 0 0 100 100" xml:space="preserve">
<g id="icone_5">
	<path fill="#8233E7" d="M68.3,86.9c0,4.6-3.2,8.3-7.2,8.3H27.1c-4,0-7.2-3.7-7.2-8.3V13.1c0-4.6,3.2-8.3,7.2-8.3h0.7
		c0,0,0,0,0.1,0.1l1.6,1.9c0.6,0.7,1.5,1.1,2.4,1.1h12.2h12.2c0.9,0,1.8-0.4,2.4-1.1l1.6-1.9c0,0,0,0,0.1-0.1H61
		c4,0,7.2,3.7,7.2,8.3v17.7l4.1-4.7v-13C72.4,5.9,67.3,0,61,0H27.1c-6.2,0-11.3,5.9-11.3,13.1v73.9c0,7.2,5.1,13.1,11.3,13.1H61
		c6.2,0,11.3-5.9,11.3-13.1V49.4l-4.1,4.7V86.9z"/>
	<circle fill="#8233E7" cx="44.1" cy="85.9" r="4"/>
	<rect x="26.7" y="20.8" fill="#8233E7" width="34.8" height="1.4"/>
	<rect x="26.7" y="25.1" fill="#8233E7" width="34.8" height="1.4"/>
	<rect x="26.7" y="29.5" fill="#8233E7" width="34.8" height="1.4"/>
	<rect x="26.7" y="33.9" fill="#8233E7" width="34.8" height="1.4"/>
	<rect x="26.7" y="38.3" fill="#8233E7" width="34.8" height="1.4"/>
	<rect x="26.7" y="44.2" fill="#8233E7" width="17.4" height="1.4"/>
	<polygon fill="#8233E7" points="76.9,25.1 72.4,30.3 68.3,35 42.8,64.3 26.6,53.5 21.2,61.6 44.5,77.2 68.3,49.9 72.4,45.2 
		84.2,31.5 	"/>
</g>
</svg>
