<?xml version="1.0" encoding="utf-8"?>
<!-- Generator: Adobe Illustrator 24.0.1, SVG Export Plug-In . SVG Version: 6.00 Build 0)  -->
<svg version="1.1" id="Calque_1" xmlns="http://www.w3.org/2000/svg" xmlns:xlink="http://www.w3.org/1999/xlink" x="0px" y="0px"
	 viewBox="0 0 100 100" enable-background="new 0 0 100 100" xml:space="preserve">
<g id="icone_4">
	<path fill="#8233E7" d="M84.7,15.5C71.4,2.2,51.5-2.3,33.8,3.8l-1.5-3C32.1,0.4,31.6,0,31,0c-0.6,0-1.1,0.2-1.4,0.7l-5.8,8.7
		c-0.3,0.5-0.3,1-0.1,1.5c0.2,0.5,0.7,0.8,1.3,0.9l10.4,0.7c0.6,0,1.1-0.2,1.4-0.7c0.3-0.5,0.3-1,0.1-1.5l-1.3-2.6
		c16.1-5.4,34.1-1.2,46.1,10.8c15.3,15.3,17.6,39.4,5.3,57.3c-0.2,0.3-0.3,0.8-0.2,1.2c0.1,0.4,0.3,0.8,0.6,1l0.9,0.6
		c0.3,0.2,0.6,0.3,0.9,0.3c0.5,0,1-0.2,1.3-0.7C103.9,58.6,101.5,32.3,84.7,15.5z"/>
	<path fill="#8233E7" d="M75.9,88l-10.5-0.4c-0.6,0-1.1,0.3-1.4,0.7c-0.3,0.5-0.3,1.1-0.1,1.5l1.4,2.6c-16.2,5.9-35,1.8-47.3-10.5
		c-14.9-14.9-17.4-38.6-6-56.3c0.5-0.7,0.3-1.7-0.5-2.1l-0.9-0.6c-0.3-0.2-0.8-0.3-1.2-0.2c-0.4,0.1-0.8,0.3-1,0.7
		C-3.8,42.8-1.1,68.7,15.2,85c9.1,9.1,21.8,14.4,34.9,14.4c5.9,0,11.7-1.1,17.3-3.1l1.6,3c0.3,0.5,0.8,0.8,1.3,0.8c0,0,0,0,0.1,0
		c0.5,0,1-0.3,1.3-0.7l5.6-8.9c0.3-0.5,0.3-1.1,0.1-1.5C77,88.4,76.5,88.1,75.9,88z"/>
</g>
</svg>
