<?xml version="1.0" encoding="utf-8"?>
<!-- Generator: Adobe Illustrator 24.0.1, SVG Export Plug-In . SVG Version: 6.00 Build 0)  -->
<svg version="1.1" id="Calque_1" xmlns="http://www.w3.org/2000/svg" xmlns:xlink="http://www.w3.org/1999/xlink" x="0px" y="0px"
	 viewBox="0 0 100 100" enable-background="new 0 0 100 100" xml:space="preserve">
<g id="icone_3">
	<path fill="#8233E7" d="M58.2,48.9L50,44.2l-8.2-4.7C41,39,40,39.6,40,40.6V50v9.4c0,0.9,1,1.5,1.8,1.1l8.2-4.7l8.2-4.7
		C59,50.6,59,49.4,58.2,48.9z"/>
	<path fill="#8233E7" d="M96.4,20H3.6c-2,0-3.6,1.6-3.6,3.6v3.9v45v3.9c0,2,1.6,3.6,3.6,3.6h92.7c2,0,3.6-1.6,3.6-3.6v-3.9v-45v-3.9
		C100,21.6,98.4,20,96.4,20z M81.5,22.2h12c0.8,0,1.5,0.7,1.5,1.5c0,0.8-0.7,1.5-1.5,1.5h-12c-0.8,0-1.5-0.7-1.5-1.5
		C80,22.9,80.7,22.2,81.5,22.2z M56.5,22.2h12c0.8,0,1.5,0.7,1.5,1.5c0,0.8-0.7,1.5-1.5,1.5h-12c-0.8,0-1.5-0.7-1.5-1.5
		C55,22.9,55.7,22.2,56.5,22.2z M31.5,22.2h12c0.8,0,1.5,0.7,1.5,1.5c0,0.8-0.7,1.5-1.5,1.5h-12c-0.8,0-1.5-0.7-1.5-1.5
		C30,22.9,30.7,22.2,31.5,22.2z M6.5,22.2h12c0.8,0,1.5,0.7,1.5,1.5c0,0.8-0.7,1.5-1.5,1.5h-12c-0.8,0-1.5-0.7-1.5-1.5
		C5,22.9,5.7,22.2,6.5,22.2z M18.5,77.8h-12c-0.8,0-1.5-0.7-1.5-1.5c0-0.8,0.7-1.5,1.5-1.5h12c0.8,0,1.5,0.7,1.5,1.5
		C20,77.1,19.3,77.8,18.5,77.8z M43.5,77.8h-12c-0.8,0-1.5-0.7-1.5-1.5c0-0.8,0.7-1.5,1.5-1.5h12c0.8,0,1.5,0.7,1.5,1.5
		C45,77.1,44.3,77.8,43.5,77.8z M68.5,77.8h-12c-0.8,0-1.5-0.7-1.5-1.5c0-0.8,0.7-1.5,1.5-1.5h12c0.8,0,1.5,0.7,1.5,1.5
		C70,77.1,69.3,77.8,68.5,77.8z M93.5,77.8h-12c-0.8,0-1.5-0.7-1.5-1.5c0-0.8,0.7-1.5,1.5-1.5h12c0.8,0,1.5,0.7,1.5,1.5
		C95,77.1,94.3,77.8,93.5,77.8z M97.7,68.9c0,2-1.6,3.6-3.6,3.6H5.9c-2,0-3.6-1.6-3.6-3.6V31.1c0-2,1.6-3.6,3.6-3.6h88.1
		c2,0,3.6,1.6,3.6,3.6V68.9z"/>
</g>
</svg>
