<svg id="scroll" xmlns="http://www.w3.org/2000/svg" viewBox="0 0 200 200"><defs><style>.cls-1{fill:#fff;}</style></defs><title>scroll-icone</title><path class="cls-1" d="M100,1.94a41,41,0,0,0-41,41v57a41,41,0,0,0,82,0v-57A41,41,0,0,0,100,1.94Zm31,98a31,31,0,0,1-62,0v-57a31,31,0,0,1,62,0Z"/><path class="cls-1" d="M100,28.94a4,4,0,0,0-4,4v15a4,4,0,0,0,8,0v-15A4,4,0,0,0,100,28.94Z"/><path class="cls-1" d="M130.47,158.69l-29.78,29.79L70.91,158.69a4,4,0,1,0-5.66,5.66l32.34,32.34a4.19,4.19,0,0,0,1,.69,4,4,0,0,0,5.06-.49l32.53-32.54a4,4,0,1,0-5.66-5.66Z"/></svg>